<?xml version="1.0" standalone="no"?>
<!DOCTYPE svg PUBLIC "-//W3C//DTD SVG 20010904//EN"
 "http://www.w3.org/TR/2001/REC-SVG-20010904/DTD/svg10.dtd">
<svg version="1.0" xmlns="http://www.w3.org/2000/svg"
 width="536.000000pt" height="536.000000pt" viewBox="0 0 536.000000 536.000000"
 preserveAspectRatio="xMidYMid meet">
<metadata>
Created by potrace 1.11, written by Peter Selinger 2001-2013
</metadata>
<g transform="translate(0.000000,536.000000) scale(0.100000,-0.100000)"
fill="#000000" stroke="none">
<path d="M326 4441 c-9 -16 -2 -912 7 -918 5 -3 52 -6 103 -5 l94 0 0 -51 c2
-212 0 -529 -4 -535 -2 -4 -49 -7 -103 -6 l-100 1 -1 -246 c0 -135 -1 -251 -1
-258 -1 -6 -30 -25 -66 -41 -38 -18 -84 -51 -112 -79 -45 -46 -99 -130 -108
-170 -3 -10 -11 -43 -19 -74 -16 -65 -14 -203 4 -274 37 -146 142 -265 304
-344 94 -47 223 -88 299 -96 18 -2 32 -4 32 -5 0 -3 46 -8 145 -16 119 -9 380
-9 570 1 80 4 177 8 215 10 253 12 362 16 452 20 57 2 107 6 113 10 5 3 10 1
10 -5 0 -6 4 -9 10 -5 5 3 76 5 157 5 81 0 162 0 178 1 36 1 29 2 145 -6 52
-3 127 -7 165 -10 64 -3 182 -16 295 -31 65 -8 224 -43 305 -65 39 -11 81 -22
95 -25 40 -7 370 -115 420 -136 90 -39 246 -111 302 -138 l58 -28 107 90 c60
50 110 94 113 97 3 3 34 31 70 61 35 30 71 62 80 70 9 8 51 47 94 85 111 98
146 131 435 405 26 25 73 69 104 99 31 29 57 56 57 60 0 9 -461 235 -555 272
-44 17 -85 35 -90 39 -7 6 -10 316 -10 904 l0 897 -64 51 c-35 29 -69 57 -75
63 -6 6 -45 38 -86 70 -41 33 -77 62 -80 66 -3 3 -57 48 -120 100 l-114 94
-501 1 -500 1 -150 -125 c-82 -68 -155 -126 -162 -129 -7 -3 -47 25 -90 62
-98 84 -116 100 -178 151 l-50 41 -301 -1 -301 -1 -36 -27 c-43 -33 -51 -35
-44 -8 3 11 0 23 -6 27 -14 9 -1506 12 -1511 4z"/>
</g>
</svg>
